<?xml version="1.0" encoding="UTF-8" standalone="no"?>
<!DOCTYPE svg PUBLIC "-//W3C//DTD SVG 1.1//EN" "http://www.w3.org/Graphics/SVG/1.1/DTD/svg11.dtd">
<svg width="100%" height="100%" viewBox="0 0 2400 1080" version="1.1" xmlns="http://www.w3.org/2000/svg" xmlns:xlink="http://www.w3.org/1999/xlink" xml:space="preserve" xmlns:serif="http://www.serif.com/" style="fill-rule:evenodd;clip-rule:evenodd;stroke-linecap:round;stroke-linejoin:round;stroke-miterlimit:1.5;">
    <g transform="matrix(1,0,0,1,0,-1254)">
        <g id="sino.wave_white-grey" transform="matrix(2.22222,0,0,0.45,0,1254)">
            <rect x="0" y="0" width="1080" height="2400" style="fill:none;"/>
            <g id="sinewaves" transform="matrix(0.981216,0,0,0.981216,5.16275,22.541)">
                <clipPath id="_clip1">
                    <rect x="209.933" y="267.86" width="670.286" height="1864.28"/>
                </clipPath>
                <g clip-path="url(#_clip1)">
                    <g transform="matrix(-0.0841746,9.22989e-17,1.86905e-17,0.415677,2024.08,-25315.6)">
                        <g id="main" transform="matrix(0.977821,0,0,0.977821,384.298,1412.84)">
                            <g transform="matrix(0.972516,0,0,0.972516,423.646,2902.21)">
                                <path d="M17637.2,62609.4C17637.2,63763.5 16700.2,64700.6 15546,64700.6C14391.8,64700.6 13454.8,63763.5 13454.8,62609.4" style="fill:none;stroke:rgb(178,178,178);stroke-width:49.21px;"/>
                            </g>
                            <g transform="matrix(0.972516,0,0,0.972516,4491.17,2902.21)">
                                <path d="M13454.8,62609.4C13454.8,62310.8 13517.5,62026.8 13630.4,61769.8C13954.1,61033.1 14690.4,60518.1 15546,60518.1C16700.2,60518.1 17637.2,61455.2 17637.2,62609.4" style="fill:none;stroke:rgb(178,178,178);stroke-width:49.21px;"/>
                            </g>
                        </g>
                        <g>
                            <g transform="matrix(0.5,0,0,0.5,6391.76,32486.1)">
                                <path d="M17637.2,62609.4C17637.2,63763.5 16700.2,64700.6 15546,64700.6C14391.8,64700.6 13454.8,63763.5 13454.8,62609.4" style="fill:none;stroke:rgb(178,178,178);stroke-width:48.11px;"/>
                            </g>
                            <g transform="matrix(0.5,0,0,0.5,8483,32486.1)">
                                <path d="M13454.8,62609.4C13454.8,61455.2 14391.8,60518.1 15546,60518.1C16700.2,60518.1 17637.2,61455.2 17637.2,62609.4" style="fill:none;stroke:rgb(178,178,178);stroke-width:48.11px;"/>
                            </g>
                            <g transform="matrix(0.5,0,0,0.5,10574.2,32486.1)">
                                <path d="M17637.2,62609.4C17637.2,63763.5 16700.2,64700.6 15546,64700.6C14391.8,64700.6 13454.8,63763.5 13454.8,62609.4" style="fill:none;stroke:rgb(178,178,178);stroke-width:48.11px;"/>
                            </g>
                            <g transform="matrix(0.5,0,0,0.5,14756.7,32486.1)">
                                <path d="M17637.2,62609.4C17637.2,63763.5 16700.2,64700.6 15546,64700.6C14391.8,64700.6 13454.8,63763.5 13454.8,62609.4" style="fill:none;stroke:rgb(178,178,178);stroke-width:48.11px;"/>
                            </g>
                            <g transform="matrix(0.5,0,0,0.5,12665.5,32486.1)">
                                <path d="M13454.8,62609.4C13454.8,61455.2 14391.8,60518.1 15546,60518.1C16700.2,60518.1 17637.2,61455.2 17637.2,62609.4" style="fill:none;stroke:rgb(178,178,178);stroke-width:48.11px;"/>
                            </g>
                        </g>
                        <g transform="matrix(0.666667,0,0,0.666667,7398.58,21261.2)">
                            <g transform="matrix(1.79144,0,0,1.79144,-16908,-50485.9)">
                                <g>
                                    <g transform="matrix(0.25,0,0,0.25,12182.9,48138.5)">
                                        <path d="M17637.2,62609.4C17637.2,63763.5 16700.2,64700.6 15546,64700.6C14391.8,64700.6 13454.8,63763.5 13454.8,62609.4" style="fill:none;stroke:rgb(178,178,178);stroke-width:27px;"/>
                                    </g>
                                    <g transform="matrix(0.25,0,0,0.25,13228.5,48138.5)">
                                        <path d="M13454.8,62609.4C13454.8,61455.2 14391.8,60518.1 15546,60518.1C16700.2,60518.1 17637.2,61455.2 17637.2,62609.4" style="fill:none;stroke:rgb(178,178,178);stroke-width:27px;"/>
                                    </g>
                                    <g transform="matrix(0.25,0,0,0.25,14274.1,48138.5)">
                                        <path d="M17637.2,62609.4C17637.2,63763.5 16700.2,64700.6 15546,64700.6C14391.8,64700.6 13454.8,63763.5 13454.8,62609.4" style="fill:none;stroke:rgb(178,178,178);stroke-width:27px;"/>
                                    </g>
                                    <g transform="matrix(0.25,0,0,0.25,15319.7,48138.5)">
                                        <path d="M13454.8,62609.4C13454.8,61455.2 14391.8,60518.1 15546,60518.1C16700.2,60518.1 17637.2,61455.2 17637.2,62609.4" style="fill:none;stroke:rgb(178,178,178);stroke-width:27px;"/>
                                    </g>
                                    <g transform="matrix(0.25,0,0,0.25,16365.4,48138.5)">
                                        <path d="M17637.2,62609.4C17637.2,63763.5 16700.2,64700.6 15546,64700.6C14391.8,64700.6 13454.8,63763.5 13454.8,62609.4" style="fill:none;stroke:rgb(178,178,178);stroke-width:27px;"/>
                                    </g>
                                    <g transform="matrix(0.25,0,0,0.25,17411,48138.5)">
                                        <path d="M13454.8,62609.4C13454.8,61455.2 14391.8,60518.1 15546,60518.1C16700.2,60518.1 17637.2,61455.2 17637.2,62609.4" style="fill:none;stroke:rgb(178,178,178);stroke-width:27px;"/>
                                    </g>
                                </g>
                            </g>
                            <g transform="matrix(1.79144,0,0,1.79144,-28147,-50485.9)">
                                <g>
                                    <g transform="matrix(0.25,0,0,0.25,16365.4,48138.5)">
                                        <path d="M17637.2,62609.4C17637.2,63763.5 16700.2,64700.6 15546,64700.6C14391.8,64700.6 13454.8,63763.5 13454.8,62609.4" style="fill:none;stroke:rgb(178,178,178);stroke-width:27px;"/>
                                    </g>
                                    <g transform="matrix(0.25,0,0,0.25,17411,48138.5)">
                                        <path d="M13454.8,62609.4C13454.8,61455.2 14391.8,60518.1 15546,60518.1C16700.2,60518.1 17637.2,61455.2 17637.2,62609.4" style="fill:none;stroke:rgb(178,178,178);stroke-width:27px;"/>
                                    </g>
                                </g>
                            </g>
                            <g transform="matrix(1,0,0,1,516.164,0)">
                                <g transform="matrix(1,0,0,1,-351.397,0)">
                                    <g transform="matrix(0.5,0,0,0.5,6727.67,31895.4)">
                                        <g transform="matrix(0.25,0,0,0.25,14274.1,48138.5)">
                                            <path d="M17637.2,62609.4C17637.2,63763.5 16700.2,64700.6 15546,64700.6C14391.8,64700.6 13454.8,63763.5 13454.8,62609.4" style="fill:none;stroke:rgb(178,178,178);stroke-width:68px;"/>
                                        </g>
                                        <g transform="matrix(0.25,0,0,0.25,15319.7,48138.5)">
                                            <path d="M13454.8,62609.4C13454.8,61455.2 14391.8,60518.1 15546,60518.1C16700.2,60518.1 17637.2,61455.2 17637.2,62609.4" style="fill:none;stroke:rgb(178,178,178);stroke-width:68px;"/>
                                        </g>
                                        <g transform="matrix(0.25,0,0,0.25,16365.4,48138.5)">
                                            <path d="M17637.2,62609.4C17637.2,63763.5 16700.2,64700.6 15546,64700.6C14391.8,64700.6 13454.8,63763.5 13454.8,62609.4" style="fill:none;stroke:rgb(178,178,178);stroke-width:68px;"/>
                                        </g>
                                        <g transform="matrix(0.25,0,0,0.25,17411,48138.5)">
                                            <path d="M13454.8,62609.4C13454.8,61455.2 14391.8,60518.1 15546,60518.1C16700.2,60518.1 17637.2,61455.2 17637.2,62609.4" style="fill:none;stroke:rgb(178,178,178);stroke-width:68px;"/>
                                        </g>
                                    </g>
                                    <g transform="matrix(0.5,0,0,0.5,10910.1,31895.4)">
                                        <g transform="matrix(0.25,0,0,0.25,10091.7,48138.5)">
                                            <path d="M17637.2,62609.4C17637.2,63763.5 16700.2,64700.6 15546,64700.6C14391.8,64700.6 13454.8,63763.5 13454.8,62609.4" style="fill:none;stroke:rgb(178,178,178);stroke-width:68px;"/>
                                        </g>
                                        <g transform="matrix(0.25,0,0,0.25,11137.3,48138.5)">
                                            <path d="M13454.8,62609.4C13454.8,61455.2 14391.8,60518.1 15546,60518.1C16700.2,60518.1 17637.2,61455.2 17637.2,62609.4" style="fill:none;stroke:rgb(178,178,178);stroke-width:68px;"/>
                                        </g>
                                        <g transform="matrix(0.25,0,0,0.25,12182.9,48138.5)">
                                            <path d="M17637.2,62609.4C17637.2,63763.5 16700.2,64700.6 15546,64700.6C14391.8,64700.6 13454.8,63763.5 13454.8,62609.4" style="fill:none;stroke:rgb(178,178,178);stroke-width:68px;"/>
                                        </g>
                                        <g transform="matrix(0.25,0,0,0.25,13228.5,48138.5)">
                                            <path d="M13454.8,62609.4C13454.8,61455.2 14391.8,60518.1 15546,60518.1C16700.2,60518.1 17637.2,61455.2 17637.2,62609.4" style="fill:none;stroke:rgb(178,178,178);stroke-width:68px;"/>
                                        </g>
                                        <g transform="matrix(0.25,0,0,0.25,14274.1,48138.5)">
                                            <path d="M17637.2,62609.4C17637.2,63763.5 16700.2,64700.6 15546,64700.6C14391.8,64700.6 13454.8,63763.5 13454.8,62609.4" style="fill:none;stroke:rgb(178,178,178);stroke-width:68px;"/>
                                        </g>
                                        <g transform="matrix(0.25,0,0,0.25,15319.7,48138.5)">
                                            <path d="M13454.8,62609.4C13454.8,61455.2 14391.8,60518.1 15546,60518.1C16700.2,60518.1 17637.2,61455.2 17637.2,62609.4" style="fill:none;stroke:rgb(178,178,178);stroke-width:68px;"/>
                                        </g>
                                        <g transform="matrix(0.25,0,0,0.25,16365.4,48138.5)">
                                            <path d="M17637.2,62609.4C17637.2,63763.5 16700.2,64700.6 15546,64700.6C14391.8,64700.6 13454.8,63763.5 13454.8,62609.4" style="fill:none;stroke:rgb(178,178,178);stroke-width:68px;"/>
                                        </g>
                                        <g transform="matrix(0.25,0,0,0.25,17411,48138.5)">
                                            <path d="M13454.8,62609.4C13454.8,61455.2 14391.8,60518.1 15546,60518.1C16700.2,60518.1 17637.2,61455.2 17637.2,62609.4" style="fill:none;stroke:rgb(178,178,178);stroke-width:68px;"/>
                                        </g>
                                        <g transform="matrix(0.25,0,0,0.25,18456.6,48138.5)">
                                            <path d="M17637.2,62609.4C17637.2,63763.5 16700.2,64700.6 15546,64700.6C14391.8,64700.6 13454.8,63763.5 13454.8,62609.4" style="fill:none;stroke:rgb(178,178,178);stroke-width:68px;"/>
                                        </g>
                                        <g transform="matrix(0.25,0,0,0.25,19498.5,48138.5)">
                                            <path d="M13454.8,62609.4C13454.8,61455.2 14391.8,60518.1 15546,60518.1C16700.2,60518.1 17637.2,61455.2 17637.2,62609.4" style="fill:none;stroke:rgb(178,178,178);stroke-width:68px;"/>
                                        </g>
                                    </g>
                                </g>
                                <g transform="matrix(1,0,0,1,6966.26,0)">
                                    <g transform="matrix(0.5,0,0,0.5,6727.67,31895.4)">
                                        <g transform="matrix(0.25,0,0,0.25,14274.1,48138.5)">
                                            <path d="M17637.2,62609.4C17637.2,63763.5 16700.2,64700.6 15546,64700.6C14391.8,64700.6 13454.8,63763.5 13454.8,62609.4" style="fill:none;stroke:rgb(178,178,178);stroke-width:68px;"/>
                                        </g>
                                        <g transform="matrix(0.25,0,0,0.25,15319.7,48138.5)">
                                            <path d="M13454.8,62609.4C13454.8,61455.2 14391.8,60518.1 15546,60518.1C16700.2,60518.1 17637.2,61455.2 17637.2,62609.4" style="fill:none;stroke:rgb(178,178,178);stroke-width:68px;"/>
                                        </g>
                                        <g transform="matrix(0.25,0,0,0.25,16365.4,48138.5)">
                                            <path d="M17637.2,62609.4C17637.2,63763.5 16700.2,64700.6 15546,64700.6C14391.8,64700.6 13454.8,63763.5 13454.8,62609.4" style="fill:none;stroke:rgb(178,178,178);stroke-width:68px;"/>
                                        </g>
                                        <g transform="matrix(0.25,0,0,0.25,17411,48138.5)">
                                            <path d="M13454.8,62609.4C13454.8,61455.2 14391.8,60518.1 15546,60518.1C16700.2,60518.1 17637.2,61455.2 17637.2,62609.4" style="fill:none;stroke:rgb(178,178,178);stroke-width:68px;"/>
                                        </g>
                                    </g>
                                </g>
                                <g transform="matrix(1,0,0,1,-6623.67,0)">
                                    <g transform="matrix(0.5,0,0,0.5,6727.67,31895.4)">
                                        <g transform="matrix(0.25,0,0,0.25,14274.1,48138.5)">
                                            <path d="M17637.2,62609.4C17637.2,63763.5 16700.2,64700.6 15546,64700.6C14391.8,64700.6 13454.8,63763.5 13454.8,62609.4" style="fill:none;stroke:rgb(178,178,178);stroke-width:68px;"/>
                                        </g>
                                        <g transform="matrix(0.25,0,0,0.25,15319.7,48138.5)">
                                            <path d="M13454.8,62609.4C13454.8,61455.2 14391.8,60518.1 15546,60518.1C16700.2,60518.1 17637.2,61455.2 17637.2,62609.4" style="fill:none;stroke:rgb(178,178,178);stroke-width:68px;"/>
                                        </g>
                                        <g transform="matrix(0.25,0,0,0.25,16365.4,48138.5)">
                                            <path d="M17637.2,62609.4C17637.2,63763.5 16700.2,64700.6 15546,64700.6C14391.8,64700.6 13454.8,63763.5 13454.8,62609.4" style="fill:none;stroke:rgb(178,178,178);stroke-width:68px;"/>
                                        </g>
                                        <g transform="matrix(0.25,0,0,0.25,17411,48138.5)">
                                            <path d="M13454.8,62609.4C13454.8,61455.2 14391.8,60518.1 15546,60518.1C16700.2,60518.1 17637.2,61455.2 17637.2,62609.4" style="fill:none;stroke:rgb(178,178,178);stroke-width:68px;"/>
                                        </g>
                                    </g>
                                    <g transform="matrix(0.5,0,0,0.5,10910.1,31895.4)">
                                        <g transform="matrix(0.25,0,0,0.25,10091.7,48138.5)">
                                            <path d="M17637.2,62609.4C17637.2,63763.5 16700.2,64700.6 15546,64700.6C14391.8,64700.6 13454.8,63763.5 13454.8,62609.4" style="fill:none;stroke:rgb(178,178,178);stroke-width:68px;"/>
                                        </g>
                                        <g transform="matrix(0.25,0,0,0.25,11137.3,48138.5)">
                                            <path d="M13454.8,62609.4C13454.8,61455.2 14391.8,60518.1 15546,60518.1C16700.2,60518.1 17637.2,61455.2 17637.2,62609.4" style="fill:none;stroke:rgb(178,178,178);stroke-width:68px;"/>
                                        </g>
                                        <g transform="matrix(0.25,0,0,0.25,12182.9,48138.5)">
                                            <path d="M17637.2,62609.4C17637.2,63763.5 16700.2,64700.6 15546,64700.6C14391.8,64700.6 13454.8,63763.5 13454.8,62609.4" style="fill:none;stroke:rgb(178,178,178);stroke-width:68px;"/>
                                        </g>
                                        <g transform="matrix(0.25,0,0,0.25,13228.5,48138.5)">
                                            <path d="M13454.8,62609.4C13454.8,61455.2 14391.8,60518.1 15546,60518.1C16700.2,60518.1 17637.2,61455.2 17637.2,62609.4" style="fill:none;stroke:rgb(178,178,178);stroke-width:68px;"/>
                                        </g>
                                        <g transform="matrix(0.25,0,0,0.25,14274.1,48138.5)">
                                            <path d="M17637.2,62609.4C17637.2,63763.5 16700.2,64700.6 15546,64700.6C14391.8,64700.6 13454.8,63763.5 13454.8,62609.4" style="fill:none;stroke:rgb(178,178,178);stroke-width:68px;"/>
                                        </g>
                                        <g transform="matrix(0.25,0,0,0.25,15319.7,48138.5)">
                                            <path d="M13454.8,62609.4C13454.8,61455.2 14391.8,60518.1 15546,60518.1C16700.2,60518.1 17637.2,61455.2 17637.2,62609.4" style="fill:none;stroke:rgb(178,178,178);stroke-width:68px;"/>
                                        </g>
                                        <g transform="matrix(0.25,0,0,0.25,16365.4,48138.5)">
                                            <path d="M17637.2,62609.4C17637.2,63763.5 16700.2,64700.6 15546,64700.6C14391.8,64700.6 13454.8,63763.5 13454.8,62609.4" style="fill:none;stroke:rgb(178,178,178);stroke-width:68px;"/>
                                        </g>
                                        <g transform="matrix(0.25,0,0,0.25,17411,48138.5)">
                                            <path d="M13454.8,62609.4C13454.8,61455.2 14391.8,60518.1 15546,60518.1C16700.2,60518.1 17637.2,61455.2 17637.2,62609.4" style="fill:none;stroke:rgb(178,178,178);stroke-width:68px;"/>
                                        </g>
                                    </g>
                                </g>
                                <g transform="matrix(1,0,0,1,-12897.4,0)">
                                    <g transform="matrix(0.5,0,0,0.5,10910.1,31895.4)">
                                        <g transform="matrix(0.25,0,0,0.25,10091.7,48138.5)">
                                            <path d="M17637.2,62609.4C17637.2,63763.5 16700.2,64700.6 15546,64700.6C14391.8,64700.6 13454.8,63763.5 13454.8,62609.4" style="fill:none;stroke:rgb(178,178,178);stroke-width:68px;"/>
                                        </g>
                                        <g transform="matrix(0.25,0,0,0.25,11137.3,48138.5)">
                                            <path d="M13454.8,62609.4C13454.8,61455.2 14391.8,60518.1 15546,60518.1C16700.2,60518.1 17637.2,61455.2 17637.2,62609.4" style="fill:none;stroke:rgb(178,178,178);stroke-width:68px;"/>
                                        </g>
                                        <g transform="matrix(0.25,0,0,0.25,12182.9,48138.5)">
                                            <path d="M17637.2,62609.4C17637.2,63763.5 16700.2,64700.6 15546,64700.6C14391.8,64700.6 13454.8,63763.5 13454.8,62609.4" style="fill:none;stroke:rgb(178,178,178);stroke-width:68px;"/>
                                        </g>
                                        <g transform="matrix(0.25,0,0,0.25,13228.5,48138.5)">
                                            <path d="M13454.8,62609.4C13454.8,61455.2 14391.8,60518.1 15546,60518.1C16700.2,60518.1 17637.2,61455.2 17637.2,62609.4" style="fill:none;stroke:rgb(178,178,178);stroke-width:68px;"/>
                                        </g>
                                        <g transform="matrix(0.25,0,0,0.25,14274.1,48138.5)">
                                            <path d="M17637.2,62609.4C17637.2,63763.5 16700.2,64700.6 15546,64700.6C14391.8,64700.6 13454.8,63763.5 13454.8,62609.4" style="fill:none;stroke:rgb(178,178,178);stroke-width:68px;"/>
                                        </g>
                                        <g transform="matrix(0.25,0,0,0.25,15319.7,48138.5)">
                                            <path d="M13454.8,62609.4C13454.8,61455.2 14391.8,60518.1 15546,60518.1C16700.2,60518.1 17637.2,61455.2 17637.2,62609.4" style="fill:none;stroke:rgb(178,178,178);stroke-width:68px;"/>
                                        </g>
                                        <g transform="matrix(0.25,0,0,0.25,16365.4,48138.5)">
                                            <path d="M17637.2,62609.4C17637.2,63763.5 16700.2,64700.6 15546,64700.6C14391.8,64700.6 13454.8,63763.5 13454.8,62609.4" style="fill:none;stroke:rgb(178,178,178);stroke-width:68px;"/>
                                        </g>
                                        <g transform="matrix(0.25,0,0,0.25,17411,48138.5)">
                                            <path d="M13454.8,62609.4C13454.8,61455.2 14391.8,60518.1 15546,60518.1C16700.2,60518.1 17637.2,61455.2 17637.2,62609.4" style="fill:none;stroke:rgb(178,178,178);stroke-width:68px;"/>
                                        </g>
                                    </g>
                                </g>
                            </g>
                        </g>
                    </g>
                    <g transform="matrix(-0.0841746,9.22989e-17,1.86905e-17,0.415677,1349.76,-25315.6)">
                        <g transform="matrix(0.977821,0,0,0.977821,384.865,2568.11)">
                            <path d="M17637.2,62609.4C17637.2,63763.5 16700.2,64700.6 15546,64700.6C14391.8,64700.6 13454.8,63763.5 13454.8,62609.4" style="fill:none;stroke:rgb(178,178,178);stroke-width:49.21px;"/>
                        </g>
                        <g transform="matrix(0.666667,0,0,0.666667,9209.4,21261.2)">
                            <g transform="matrix(1.79144,0,0,1.79144,-28147,-50485.9)">
                                <g>
                                    <g transform="matrix(0.25,0,0,0.25,16365.4,48138.5)">
                                        <path d="M17637.2,62609.4C17637.2,63763.5 16700.2,64700.6 15546,64700.6C14391.8,64700.6 13454.8,63763.5 13454.8,62609.4" style="fill:none;stroke:rgb(178,178,178);stroke-width:27px;"/>
                                    </g>
                                    <g transform="matrix(0.25,0,0,0.25,17411,48138.5)">
                                        <path d="M13454.8,62609.4C13454.8,61455.2 14391.8,60518.1 15546,60518.1C16700.2,60518.1 17637.2,61455.2 17637.2,62609.4" style="fill:none;stroke:rgb(178,178,178);stroke-width:27px;"/>
                                    </g>
                                </g>
                            </g>
                        </g>
                    </g>
                    <g transform="matrix(-0.0923089,1.01218e-16,2.04967e-17,0.455846,2884.99,-27877.9)">
                        <clipPath id="_clip2">
                            <rect x="19395.1" y="61744" width="2406.39" height="4089.71"/>
                        </clipPath>
                        <g clip-path="url(#_clip2)">
                            <g transform="matrix(0.977821,0,0,0.977821,4474.58,2568.11)">
                                <path d="M13454.8,62609.4C13454.8,62310.8 13517.5,62026.8 13630.4,61769.8C13954.1,61033.1 14690.4,60518.1 15546,60518.1C16700.2,60518.1 17637.2,61455.2 17637.2,62609.4" style="fill:none;stroke:rgb(178,178,178);stroke-width:49.21px;"/>
                            </g>
                            <g transform="matrix(0.5,0,0,0.5,12478.4,32486.1)">
                                <path d="M13454.8,62609.4C13454.8,61455.2 14391.8,60518.1 15546,60518.1C16700.2,60518.1 17637.2,61455.2 17637.2,62609.4" style="fill:none;stroke:rgb(178,178,178);stroke-width:48.11px;"/>
                            </g>
                        </g>
                    </g>
                </g>
            </g>
            <g id="Icons">
                <g id="logo-simple" serif:id="logo simple" transform="matrix(-1.6617,-1.00493e-15,4.12086e-17,-1.6617,1220.38,2898.26)">
                    <g>
                        <g transform="matrix(-1.08852e-18,-0.0189758,-0.00384259,5.3754e-18,349.752,1277.54)">
                            <path d="M17340.9,63682.5C16975.3,64292.2 16308,64700.6 15546,64700.6C14784,64700.6 14116.7,64292.2 13751.1,63682.5" style="fill:none;stroke:rgb(76,76,76);stroke-width:634.28px;"/>
                        </g>
                        <g transform="matrix(1.08852e-18,0.0189758,0.00384259,-5.3754e-18,-131.413,766.686)">
                            <path d="M17340.9,63682.5C16975.3,64292.2 16308,64700.6 15546,64700.6C14784,64700.6 14116.7,64292.2 13751.1,63682.5" style="fill:none;stroke:rgb(76,76,76);stroke-width:634.28px;"/>
                        </g>
                    </g>
                    <g transform="matrix(-0.026198,1.58436e-17,-3.20833e-18,-0.129373,517.31,9084.58)">
                        <circle cx="15579.1" cy="61716.9" r="78.443" style="fill:rgb(93,93,214);"/>
                    </g>
                    <g transform="matrix(-0.026198,1.58436e-17,-3.20833e-18,-0.129373,517.31,9004.87)">
                        <circle cx="15579.1" cy="61716.9" r="78.443" style="fill:rgb(93,214,92);"/>
                    </g>
                    <g transform="matrix(-0.026198,1.58436e-17,-3.20833e-18,-0.129373,517.31,8928.6)">
                        <circle cx="15579.1" cy="61716.9" r="78.443" style="fill:rgb(214,91,91);"/>
                    </g>
                </g>
                <g id="settings" transform="matrix(1.13253,0,0,1.13253,-139.042,-102.918)">
                    <g transform="matrix(0.591585,-5.22134e-32,3.08625e-33,1.60157,-2435.86,-87.8832)">
                        <path d="M5875.79,486.319L5875.79,412.81" style="fill:none;stroke:rgb(77,77,77);stroke-width:7.5px;"/>
                    </g>
                    <g transform="matrix(0.591585,-5.21878e-32,3.08625e-33,1.60079,-2447.11,-126.803)">
                        <path d="M5875.79,486.319L5875.79,412.81" style="fill:none;stroke:rgb(77,77,77);stroke-width:7.5px;"/>
                    </g>
                    <g transform="matrix(0.591585,-5.21878e-32,3.08625e-33,1.60079,-2424.62,-126.803)">
                        <path d="M5875.79,486.319L5875.79,412.81" style="fill:none;stroke:rgb(77,77,77);stroke-width:7.5px;"/>
                    </g>
                    <g transform="matrix(0.0384388,0,0,0.189821,441.324,-11179.5)">
                        <circle cx="15579.1" cy="61716.9" r="78.443" style="fill:rgb(214,91,91);"/>
                    </g>
                </g>
                <g id="profile" transform="matrix(1.00776,0,0,1.00776,-8.60197,-142.904)">
                    <g transform="matrix(0.358244,0,0,1.76911,-1130.33,619.229)">
                        <path d="M6056.89,704.937L6056.89,695.085M6036.89,710.296L6031.96,701.765M6022.24,724.94L6013.71,720.014M6016.88,744.943L6007.03,744.943M6022.24,764.947L6013.71,769.872M6036.89,779.59L6031.96,788.122M6056.89,784.95L6056.89,794.801M6076.89,779.59L6081.82,788.122M6091.54,764.947L6100.07,769.872M6096.9,744.943L6106.75,744.943M6091.54,724.94L6100.07,720.014M6076.89,710.296L6081.82,701.765" style="fill:none;stroke:rgb(77,77,77);stroke-width:11.22px;"/>
                    </g>
                    <g transform="matrix(0.043198,0,-1.31774e-48,0.213324,366.53,-11228.7)">
                        <circle cx="15579.1" cy="61716.9" r="78.443" style="fill:rgb(93,93,214);"/>
                    </g>
                </g>
            </g>
            <g id="arrows" transform="matrix(1,0,0,1,-1.61805,0)">
                <g id="left-" serif:id="left " transform="matrix(1,0,0,1,12.2054,-19.3778)">
                    <g transform="matrix(0.45,0,0,2.22222,-2601.76,0)">
                        <path d="M6102.03,511.337L6064.65,548.72L6102.03,511.337Z" style="fill:none;stroke:rgb(204,204,204);stroke-width:14.07px;"/>
                    </g>
                    <g transform="matrix(0.45,0,0,-2.22222,-2601.76,2438.76)">
                        <path d="M6102.03,511.337L6064.65,548.72L6102.03,511.337Z" style="fill:none;stroke:rgb(204,204,204);stroke-width:14.07px;"/>
                    </g>
                </g>
                <g id="right" transform="matrix(-1,0,0,1,1071.03,-19.3778)">
                    <g transform="matrix(0.45,0,0,2.22222,-2601.76,0)">
                        <path d="M6102.03,511.337L6064.65,548.72L6102.03,511.337Z" style="fill:none;stroke:rgb(204,204,204);stroke-width:14.07px;"/>
                    </g>
                    <g transform="matrix(0.45,0,0,-2.22222,-2601.76,2438.76)">
                        <path d="M6102.03,511.337L6064.65,548.72L6102.03,511.337Z" style="fill:none;stroke:rgb(204,204,204);stroke-width:14.07px;"/>
                    </g>
                </g>
            </g>
            <g id="lines">
                <g id="x-line" serif:id="x line" transform="matrix(-0.0786252,9.22989e-17,1.74583e-17,0.415677,1926.73,-25316.2)">
                    <path d="M13454.8,63790.4L21819.7,63790.4" style="fill:none;stroke:rgb(205,205,205);stroke-width:11.05px;"/>
                </g>
                <g id="main-wave-dividers" serif:id="main wave dividers">
                    <g transform="matrix(2.75546e-17,-2.12766,0.45,1.30282e-16,-801,2348.94)">
                        <path d="M70,2250L1010,2250" style="fill:none;stroke:rgb(224,224,224);stroke-width:3.03px;"/>
                    </g>
                    <g transform="matrix(2.75546e-17,-2.05674,0.45,1.25939e-16,-472.5,2277.3)">
                        <path d="M70,2250L1010,2250" style="fill:none;stroke:rgb(224,224,224);stroke-width:3.08px;"/>
                    </g>
                    <g transform="matrix(2.75546e-17,-2.05674,0.45,1.25939e-16,-636.749,2277.3)">
                        <path d="M70,2250L1010,2250" style="fill:none;stroke:rgb(224,224,224);stroke-width:3.08px;"/>
                    </g>
                    <g transform="matrix(2.75546e-17,-2.05674,0.45,1.25939e-16,-308.25,2277.3)">
                        <path d="M70,2250L1010,2250" style="fill:none;stroke:rgb(224,224,224);stroke-width:3.08px;"/>
                    </g>
                    <g transform="matrix(2.75546e-17,-2.05674,0.45,1.25939e-16,-144,2277.3)">
                        <path d="M70,2250L1010,2250" style="fill:none;stroke:rgb(224,224,224);stroke-width:3.08px;"/>
                    </g>
                </g>
                <g id="today-line" serif:id="today line">
                    <g transform="matrix(0.117561,0,0,0.370718,-1388.81,-22201.8)">
                        <path d="M14778.5,60624.3L14778.5,65636.1" style="fill:none;stroke:rgb(128,128,128);stroke-width:5.93px;stroke-dasharray:21.96,23.74,0,0,0,0;"/>
                    </g>
                    <g transform="matrix(0.0975603,0,0,0.481779,-1585.77,-29920.8)">
                        <g>
                            <g transform="matrix(6.47422,0,0,8.2413,-28036.1,58484.1)">
                                <path d="M7414.11,965.044L7414.11,975.132C7414.11,977.916 7411.23,980.176 7407.68,980.176L7378.08,980.176C7374.54,980.176 7371.66,977.916 7371.66,975.132L7371.66,965.044C7371.66,962.26 7374.54,960 7378.08,960L7407.68,960C7411.23,960 7414.11,962.26 7414.11,965.044Z" style="fill:rgb(77,77,77);"/>
                            </g>
                            <g transform="matrix(1.16612,0,0,1.16612,3531.76,-11199.2)">
                                <g transform="matrix(71.7787,0,0,71.7787,14035.5,66622.5)">
                                </g>
                                <text x="13915.8px" y="66622.5px" style="font-family:'HelveticaNeueLTStd-Bd', 'Helvetica Neue LT Std', sans-serif;font-weight:700;font-size:71.779px;fill:white;">4.6.</text>
                            </g>
                        </g>
                    </g>
                </g>
                <g id="edges" transform="matrix(1,0,0,0.921925,0,20.8199)">
                    <g transform="matrix(0.45,1.98616e-16,4.01916e-17,2.59161,-1014.7,-66.1383)">
                        <path d="M2724.11,128.416L2724.11,951.584" style="fill:none;stroke:rgb(203,203,203);stroke-width:5.78px;stroke-linecap:butt;"/>
                    </g>
                    <g transform="matrix(0.45,1.9801e-16,4.01916e-17,2.58371,-357.002,-58.618)">
                        <path d="M2724.11,128.416L2724.11,951.584" style="fill:none;stroke:rgb(203,203,203);stroke-width:5.79px;stroke-linecap:butt;"/>
                    </g>
                    <g transform="matrix(0.45,2.01906e-16,4.28821e-17,2.44842,-231.143,-38.3452)">
                        <path d="M2724.11,128.416L2724.11,951.584" style="fill:none;stroke:rgb(205,205,205);stroke-width:5.79px;"/>
                    </g>
                    <g transform="matrix(-0.45,2.01906e-16,-4.28821e-17,2.44842,1311.35,-38.3452)">
                        <path d="M2724.11,128.416L2724.11,951.584" style="fill:none;stroke:rgb(205,205,205);stroke-width:5.79px;"/>
                    </g>
                </g>
                <g id="monthly-dividers" serif:id="monthly dividers" transform="matrix(1,0,0,0.860422,0,168.427)">
                    <g transform="matrix(0.0928815,0,0,0.478873,-1140.58,-29031.3)">
                        <path d="M14778.5,60624.3L14778.5,65636.1" style="fill:none;stroke:rgb(204,204,204);stroke-width:4.39px;stroke-dasharray:16.24,17.56,0,0,0,0;"/>
                    </g>
                    <g transform="matrix(0.0928815,0,0,0.478873,-1088.07,-29031.3)">
                        <path d="M14778.5,60624.3L14778.5,65636.1" style="fill:none;stroke:rgb(204,204,204);stroke-width:4.39px;stroke-dasharray:16.24,17.56,0,0,0,0;"/>
                    </g>
                    <g transform="matrix(0.0928815,0,0,0.478873,-1032.19,-29031.3)">
                        <path d="M14778.5,60624.3L14778.5,65636.1" style="fill:none;stroke:rgb(204,204,204);stroke-width:4.39px;stroke-dasharray:16.24,17.56,0,0,0,0;"/>
                    </g>
                    <g transform="matrix(0.0928815,0,0,0.478873,-979.223,-29031.3)">
                        <path d="M14778.5,60624.3L14778.5,65636.1" style="fill:none;stroke:rgb(204,204,204);stroke-width:4.39px;stroke-dasharray:16.24,17.56,0,0,0,0;"/>
                    </g>
                    <g transform="matrix(0.0928815,0,0,0.478873,-924.478,-29031.3)">
                        <path d="M14778.5,60624.3L14778.5,65636.1" style="fill:none;stroke:rgb(204,204,204);stroke-width:4.39px;stroke-dasharray:16.24,17.56,0,0,0,0;"/>
                    </g>
                    <g transform="matrix(0.0928815,0,0,0.478873,-869.686,-29031.3)">
                        <path d="M14778.5,60624.3L14778.5,65636.1" style="fill:none;stroke:rgb(204,204,204);stroke-width:4.39px;stroke-dasharray:16.24,17.56,0,0,0,0;"/>
                    </g>
                    <g transform="matrix(0.0928815,0,0,0.478873,-816.282,-29031.3)">
                        <path d="M14778.5,60624.3L14778.5,65636.1" style="fill:none;stroke:rgb(204,204,204);stroke-width:4.39px;stroke-dasharray:16.24,17.56,0,0,0,0;"/>
                    </g>
                    <g transform="matrix(0.0928815,0,0,0.478873,-759.674,-29031.3)">
                        <path d="M14778.5,60624.3L14778.5,65636.1" style="fill:none;stroke:rgb(204,204,204);stroke-width:4.39px;stroke-dasharray:16.24,17.56,0,0,0,0;"/>
                    </g>
                    <g transform="matrix(0.0928815,0,0,0.478873,-704.868,-29031.3)">
                        <path d="M14778.5,60624.3L14778.5,65636.1" style="fill:none;stroke:rgb(204,204,204);stroke-width:4.39px;stroke-dasharray:16.24,17.56,0,0,0,0;"/>
                    </g>
                    <g transform="matrix(0.0928815,0,0,0.478873,-590.925,-29031.3)">
                        <path d="M14778.5,60624.3L14778.5,65636.1" style="fill:none;stroke:rgb(204,204,204);stroke-width:4.39px;stroke-dasharray:16.24,17.56,0,0,0,0;"/>
                    </g>
                    <g transform="matrix(0.0928815,0,0,0.478873,-539.187,-29031.3)">
                        <path d="M14778.5,60624.3L14778.5,65636.1" style="fill:none;stroke:rgb(204,204,204);stroke-width:4.39px;stroke-dasharray:16.24,17.56,0,0,0,0;"/>
                    </g>
                </g>
            </g>
            <g id="lower-table" serif:id="lower table">
                <g transform="matrix(0.501778,0,0,2.22222,-3140.63,2133.44)">
                    <path d="M8061.59,22.5L8061.59,67.5C8061.59,79.918 8052.55,90 8041.41,90L6628.94,90C6617.8,90 6608.76,79.918 6608.76,67.5L6608.76,22.5C6608.76,10.082 6617.8,-0 6628.94,-0L8041.41,-0C8052.55,-0 8061.59,10.082 8061.59,22.5Z" style="fill:white;stroke:rgb(179,179,179);stroke-width:5.67px;"/>
                </g>
                <g id="Text-Mesiace" serif:id="Text Mesiace" transform="matrix(0.0800259,0,0,0.395189,-862.176,-24106.4)">
                    <g transform="matrix(0.940086,0,0,0.940086,826.884,3927.38)">
                        <g transform="matrix(143.557,0,0,143.557,14117.9,66622.5)">
                        </g>
                        <text x="13915.8px" y="66622.5px" style="font-family:'HelveticaNeueLTStd-Lt', 'Helvetica Neue LT Std', sans-serif;font-weight:300;font-size:143.557px;fill:rgb(76,76,76);">apr</text>
                    </g>
                    <g transform="matrix(0.940086,0,0,0.940086,1466.13,3927.38)">
                        <g transform="matrix(143.557,0,0,143.557,14176.3,66622.5)">
                        </g>
                        <text x="13915.8px" y="66622.5px" style="font-family:'HelveticaNeueLTStd-Lt', 'Helvetica Neue LT Std', sans-serif;font-weight:300;font-size:143.557px;fill:rgb(76,76,76);">may</text>
                    </g>
                    <g transform="matrix(0.940086,0,0,0.940086,243.543,3927.38)">
                        <g transform="matrix(143.557,0,0,143.557,14155.1,66622.5)">
                        </g>
                        <text x="13915.8px" y="66622.5px" style="font-family:'HelveticaNeueLTStd-Lt', 'Helvetica Neue LT Std', sans-serif;font-weight:300;font-size:143.557px;fill:rgb(76,76,76);">mar</text>
                    </g>
                    <g transform="matrix(0.940086,0,0,0.940086,2882.3,3927.38)">
                        <g transform="matrix(143.557,0,0,143.557,14046,66622.5)">
                        </g>
                        <text x="13915.8px" y="66622.5px" style="font-family:'HelveticaNeueLTStd-Lt', 'Helvetica Neue LT Std', sans-serif;font-weight:300;font-size:143.557px;fill:rgb(76,76,76);">jul</text>
                    </g>
                    <g transform="matrix(0.940086,0,0,0.940086,3535.47,3927.44)">
                        <g transform="matrix(143.557,0,0,143.557,14147.2,66622.5)">
                        </g>
                        <text x="13915.8px" y="66622.5px" style="font-family:'HelveticaNeueLTStd-Lt', 'Helvetica Neue LT Std', sans-serif;font-weight:300;font-size:143.557px;fill:rgb(76,76,76);">aug</text>
                    </g>
                    <g transform="matrix(0.940086,0,0,0.940086,2201.93,3927.38)">
                        <g transform="matrix(143.557,0,0,143.557,14096.5,66622.5)">
                        </g>
                        <text x="13915.8px" y="66622.5px" style="font-family:'HelveticaNeueLTStd-Lt', 'Helvetica Neue LT Std', sans-serif;font-weight:300;font-size:143.557px;fill:rgb(76,76,76);">jun</text>
                    </g>
                    <g transform="matrix(0.940086,0,0,0.940086,4203.89,3927.38)">
                        <g transform="matrix(143.557,0,0,143.557,14141.7,66622.5)">
                        </g>
                        <text x="13915.8px" y="66622.5px" style="font-family:'HelveticaNeueLTStd-Lt', 'Helvetica Neue LT Std', sans-serif;font-weight:300;font-size:143.557px;fill:rgb(76,76,76);">sep</text>
                    </g>
                    <g transform="matrix(0.940086,0,0,0.940086,4884.29,3927.38)">
                        <g transform="matrix(143.557,0,0,143.557,14112.6,66622.5)">
                        </g>
                        <text x="13915.8px" y="66622.5px" style="font-family:'HelveticaNeueLTStd-Lt', 'Helvetica Neue LT Std', sans-serif;font-weight:300;font-size:143.557px;fill:rgb(76,76,76);">oct</text>
                    </g>
                    <g transform="matrix(0.940086,0,0,0.940086,6286.71,3926.37)">
                        <g transform="matrix(143.557,0,0,143.557,14147.2,66622.5)">
                        </g>
                        <text x="13915.8px" y="66622.5px" style="font-family:'HelveticaNeueLTStd-Lt', 'Helvetica Neue LT Std', sans-serif;font-weight:300;font-size:143.557px;fill:rgb(76,76,76);">dec</text>
                    </g>
                    <g transform="matrix(0.940086,0,0,0.940086,6154.47,4204.19)">
                        <g transform="matrix(143.557,0,0,143.557,14314.9,66622.5)">
                        </g>
                        <text x="13995.6px" y="66622.5px" style="font-family:'HelveticaNeueLTStd-Bd', 'Helvetica Neue LT Std', sans-serif;font-weight:700;font-size:143.557px;fill:rgb(76,76,76);">2025</text>
                    </g>
                    <g transform="matrix(0.940086,0,0,0.940086,6950.84,4201.08)">
                        <g transform="matrix(143.557,0,0,143.557,14274.9,66622.5)">
                        </g>
                        <text x="13915.8px" y="66622.5px" style="font-family:'HelveticaNeueLTStd-Bd', 'Helvetica Neue LT Std', sans-serif;font-weight:700;font-size:143.557px;fill:rgb(76,76,76);">2026</text>
                    </g>
                    <g transform="matrix(-5.62318,0,0,5.62318,41407.3,60984.6)">
                        <g transform="matrix(24,0,0,24,3741.09,1038.1)">
                        </g>
                        <text x="3726.69px" y="1038.1px" style="font-family:'HelveticaNeueLTStd-Bd', 'Helvetica Neue LT Std', sans-serif;font-weight:700;font-size:24px;fill:rgb(76,76,76);">&lt;</text>
                    </g>
                    <g transform="matrix(5.62318,0,0,5.62318,-1763.51,60984.6)">
                        <g transform="matrix(24,0,0,24,3741.09,1038.1)">
                        </g>
                        <text x="3726.69px" y="1038.1px" style="font-family:'HelveticaNeueLTStd-Bd', 'Helvetica Neue LT Std', sans-serif;font-weight:700;font-size:24px;fill:rgb(76,76,76);">&lt;</text>
                    </g>
                    <g transform="matrix(0.940086,0,0,0.940086,7022.43,3926.57)">
                        <g transform="matrix(143.557,0,0,143.557,14093.9,66622.5)">
                        </g>
                        <text x="13915.8px" y="66622.5px" style="font-family:'HelveticaNeueLTStd-Lt', 'Helvetica Neue LT Std', sans-serif;font-weight:300;font-size:143.557px;fill:rgb(76,76,76);">jan</text>
                    </g>
                    <g transform="matrix(0.940086,0,0,0.940086,7704.27,3927.38)">
                        <g transform="matrix(143.557,0,0,143.557,14109.9,66622.5)">
                        </g>
                        <text x="13915.8px" y="66622.5px" style="font-family:'HelveticaNeueLTStd-Lt', 'Helvetica Neue LT Std', sans-serif;font-weight:300;font-size:143.557px;fill:rgb(76,76,76);">feb</text>
                    </g>
                    <g transform="matrix(0.940086,0,0,0.940086,8340.43,3927.38)">
                        <g transform="matrix(143.557,0,0,143.557,14155.1,66622.5)">
                        </g>
                        <text x="13915.8px" y="66622.5px" style="font-family:'HelveticaNeueLTStd-Lt', 'Helvetica Neue LT Std', sans-serif;font-weight:300;font-size:143.557px;fill:rgb(76,76,76);">mar</text>
                    </g>
                    <g transform="matrix(0.940086,0,0,0.940086,5587.55,3927.38)">
                        <g transform="matrix(143.557,0,0,143.557,14139.1,66622.5)">
                        </g>
                        <text x="13915.8px" y="66622.5px" style="font-family:'HelveticaNeueLTStd-Lt', 'Helvetica Neue LT Std', sans-serif;font-weight:300;font-size:143.557px;fill:rgb(76,76,76);">nov</text>
                    </g>
                </g>
            </g>
            <g transform="matrix(0.0928815,0,0,0.431986,-648.155,-26020.4)">
                <path d="M14778.5,60624.3L14778.5,65636.1" style="fill:none;stroke:rgb(152,152,152);stroke-width:5.16px;stroke-dasharray:19.1,20.65,0,0,0,0;"/>
            </g>
            <g id="dashed-date-time-line" serif:id="dashed date-time line" transform="matrix(0.430556,0,0,2.22222,-947.52,0)">
                <path d="M2644.88,1007.27L2644.88,1002.83L2647.21,1002.83L2647.21,1007.27L2644.88,1007.27ZM2651.87,1007.27L2651.87,1002.83L2656.52,1002.83L2656.52,1007.27L2651.87,1007.27ZM2661.18,1007.27L2661.18,1002.83L2665.83,1002.83L2665.83,1007.27L2661.18,1007.27ZM2670.49,1007.27L2670.49,1002.83L2675.14,1002.83L2675.14,1007.27L2670.49,1007.27ZM2679.8,1007.27L2679.8,1002.83L2684.45,1002.83L2684.45,1007.27L2679.8,1007.27ZM2689.11,1007.27L2689.11,1002.83L2693.76,1002.83L2693.76,1007.27L2689.11,1007.27ZM2698.42,1007.27L2698.42,1002.83L2703.07,1002.83L2703.07,1007.27L2698.42,1007.27ZM2707.73,1007.27L2707.73,1002.83L2712.39,1002.83L2712.39,1007.27L2707.73,1007.27ZM2717.04,1007.27L2717.04,1002.83L2721.7,1002.83L2721.7,1007.27L2717.04,1007.27ZM2726.35,1007.27L2726.35,1002.83L2731,1002.83L2731,1007.27L2726.35,1007.27ZM2735.66,1007.27L2735.66,1002.83L2740.32,1002.83L2740.32,1007.27L2735.66,1007.27ZM2744.97,1007.27L2744.97,1002.83L2749.62,1002.83L2749.62,1007.27L2744.97,1007.27ZM2754.28,1007.27L2754.28,1002.83L2758.93,1002.83L2758.93,1007.27L2754.28,1007.27ZM2763.59,1007.27L2763.59,1002.83L2768.25,1002.83L2768.25,1007.27L2763.59,1007.27ZM2772.9,1007.27L2772.9,1002.83L2777.56,1002.83L2777.56,1007.27L2772.9,1007.27ZM2782.21,1007.27L2782.21,1002.83L2786.87,1002.83L2786.87,1007.27L2782.21,1007.27ZM2791.52,1007.27L2791.52,1002.83L2796.18,1002.83L2796.18,1007.27L2791.52,1007.27ZM2800.83,1007.27L2800.83,1002.83L2805.49,1002.83L2805.49,1007.27L2800.83,1007.27ZM2810.14,1007.27L2810.14,1002.83L2814.8,1002.83L2814.8,1007.27L2810.14,1007.27ZM2819.45,1007.27L2819.45,1002.83L2824.11,1002.83L2824.11,1007.27L2819.45,1007.27ZM2828.76,1007.27L2828.76,1002.83L2833.42,1002.83L2833.42,1007.27L2828.76,1007.27ZM2838.08,1007.27L2838.08,1002.83L2842.73,1002.83L2842.73,1007.27L2838.08,1007.27ZM2847.38,1007.27L2847.38,1002.83L2852.04,1002.83L2852.04,1007.27L2847.38,1007.27ZM2856.7,1007.27L2856.7,1002.83L2861.35,1002.83L2861.35,1007.27L2856.7,1007.27ZM2866.01,1007.27L2866.01,1002.83L2870.66,1002.83L2870.66,1007.27L2866.01,1007.27ZM2875.32,1007.27L2875.32,1002.83L2879.97,1002.83L2879.97,1007.27L2875.32,1007.27ZM2884.63,1007.27L2884.63,1002.83L2889.28,1002.83L2889.28,1007.27L2884.63,1007.27ZM2893.93,1007.27L2893.93,1002.83L2898.59,1002.83L2898.59,1007.27L2893.93,1007.27ZM2903.24,1007.27L2903.24,1002.83L2907.9,1002.83L2907.9,1007.27L2903.24,1007.27ZM2912.56,1007.27L2912.56,1002.83L2917.21,1002.83L2917.21,1007.27L2912.56,1007.27ZM2921.87,1007.27L2921.87,1002.83L2926.52,1002.83L2926.52,1007.27L2921.87,1007.27ZM2931.18,1007.27L2931.18,1002.83L2935.83,1002.83L2935.83,1007.27L2931.18,1007.27ZM2940.49,1007.27L2940.49,1002.83L2945.14,1002.83L2945.14,1007.27L2940.49,1007.27ZM2949.8,1007.27L2949.8,1002.83L2954.45,1002.83L2954.45,1007.27L2949.8,1007.27ZM2959.11,1007.27L2959.11,1002.83L2963.76,1002.83L2963.76,1007.27L2959.11,1007.27ZM2968.42,1007.27L2968.42,1002.83L2973.07,1002.83L2973.07,1007.27L2968.42,1007.27ZM2977.73,1007.27L2977.73,1002.83L2982.38,1002.83L2982.38,1007.27L2977.73,1007.27ZM2987.04,1007.27L2987.04,1002.83L2991.69,1002.83L2991.69,1007.27L2987.04,1007.27ZM2996.35,1007.27L2996.35,1002.83L3001.01,1002.83L3001.01,1007.27L2996.35,1007.27ZM3005.66,1007.27L3005.66,1002.83L3010.31,1002.83L3010.31,1007.27L3005.66,1007.27ZM3014.97,1007.27L3014.97,1002.83L3019.63,1002.83L3019.63,1007.27L3014.97,1007.27ZM3024.28,1007.27L3024.28,1002.83L3028.93,1002.83L3028.93,1007.27L3024.28,1007.27ZM3033.59,1007.27L3033.59,1002.83L3038.25,1002.83L3038.25,1007.27L3033.59,1007.27ZM3042.9,1007.27L3042.9,1002.83L3047.56,1002.83L3047.56,1007.27L3042.9,1007.27ZM3052.21,1007.27L3052.21,1002.83L3056.87,1002.83L3056.87,1007.27L3052.21,1007.27ZM3061.52,1007.27L3061.52,1002.83L3066.18,1002.83L3066.18,1007.27L3061.52,1007.27ZM3070.83,1007.27L3070.83,1002.83L3075.49,1002.83L3075.49,1007.27L3070.83,1007.27ZM3080.14,1007.27L3080.14,1002.83L3084.8,1002.83L3084.8,1007.27L3080.14,1007.27ZM3089.45,1007.27L3089.45,1002.83L3094.11,1002.83L3094.11,1007.27L3089.45,1007.27ZM3098.76,1007.27L3098.76,1002.83L3103.42,1002.83L3103.42,1007.27L3098.76,1007.27ZM3108.08,1007.27L3108.08,1002.83L3112.73,1002.83L3112.73,1007.27L3108.08,1007.27ZM3117.38,1007.27L3117.38,1002.83L3122.04,1002.83L3122.04,1007.27L3117.38,1007.27ZM3126.7,1007.27L3126.7,1002.83L3131.35,1002.83L3131.35,1007.27L3126.7,1007.27ZM3136.01,1007.27L3136.01,1002.83L3140.66,1002.83L3140.66,1007.27L3136.01,1007.27ZM3145.32,1007.27L3145.32,1002.83L3149.97,1002.83L3149.97,1007.27L3145.32,1007.27ZM3154.62,1007.27L3154.62,1002.83L3159.28,1002.83L3159.28,1007.27L3154.62,1007.27ZM3163.93,1007.27L3163.93,1002.83L3168.59,1002.83L3168.59,1007.27L3163.93,1007.27ZM3173.25,1007.27L3173.25,1002.83L3177.9,1002.83L3177.9,1007.27L3173.25,1007.27ZM3182.56,1007.27L3182.56,1002.83L3187.21,1002.83L3187.21,1007.27L3182.56,1007.27ZM3191.87,1007.27L3191.87,1002.83L3196.52,1002.83L3196.52,1007.27L3191.87,1007.27ZM3201.18,1007.27L3201.18,1002.83L3205.83,1002.83L3205.83,1007.27L3201.18,1007.27ZM3210.49,1007.27L3210.49,1002.83L3215.14,1002.83L3215.14,1007.27L3210.49,1007.27ZM3219.8,1007.27L3219.8,1002.83L3224.45,1002.83L3224.45,1007.27L3219.8,1007.27ZM3229.11,1007.27L3229.11,1002.83L3233.76,1002.83L3233.76,1007.27L3229.11,1007.27ZM3238.42,1007.27L3238.42,1002.83L3243.07,1002.83L3243.07,1007.27L3238.42,1007.27ZM3247.73,1007.27L3247.73,1002.83L3252.38,1002.83L3252.38,1007.27L3247.73,1007.27ZM3257.04,1007.27L3257.04,1002.83L3261.7,1002.83L3261.7,1007.27L3257.04,1007.27ZM3266.35,1007.27L3266.35,1002.83L3271,1002.83L3271,1007.27L3266.35,1007.27ZM3275.66,1007.27L3275.66,1002.83L3280.32,1002.83L3280.32,1007.27L3275.66,1007.27ZM3284.97,1007.27L3284.97,1002.83L3289.63,1002.83L3289.63,1007.27L3284.97,1007.27ZM3294.28,1007.27L3294.28,1002.83L3298.93,1002.83L3298.93,1007.27L3294.28,1007.27ZM3303.59,1007.27L3303.59,1002.83L3308.25,1002.83L3308.25,1007.27L3303.59,1007.27ZM3312.9,1007.27L3312.9,1002.83L3317.56,1002.83L3317.56,1007.27L3312.9,1007.27ZM3322.21,1007.27L3322.21,1002.83L3326.87,1002.83L3326.87,1007.27L3322.21,1007.27ZM3331.52,1007.27L3331.52,1002.83L3336.18,1002.83L3336.18,1007.27L3331.52,1007.27ZM3340.83,1007.27L3340.83,1002.83L3345.49,1002.83L3345.49,1007.27L3340.83,1007.27ZM3350.14,1007.27L3350.14,1002.83L3354.8,1002.83L3354.8,1007.27L3350.14,1007.27ZM3359.45,1007.27L3359.45,1002.83L3364.11,1002.83L3364.11,1007.27L3359.45,1007.27ZM3368.76,1007.27L3368.76,1002.83L3373.42,1002.83L3373.42,1007.27L3368.76,1007.27ZM3378.07,1007.27L3378.07,1002.83L3382.73,1002.83L3382.73,1007.27L3378.07,1007.27ZM3387.39,1007.27L3387.39,1002.83L3392.04,1002.83L3392.04,1007.27L3387.39,1007.27ZM3396.69,1007.27L3396.69,1002.83L3401.35,1002.83L3401.35,1007.27L3396.69,1007.27ZM3406.01,1007.27L3406.01,1002.83L3410.66,1002.83L3410.66,1007.27L3406.01,1007.27ZM3415.31,1007.27L3415.31,1002.83L3419.97,1002.83L3419.97,1007.27L3415.31,1007.27ZM3424.63,1007.27L3424.63,1002.83L3429.28,1002.83L3429.28,1007.27L3424.63,1007.27ZM3433.93,1007.27L3433.93,1002.83L3438.59,1002.83L3438.59,1007.27L3433.93,1007.27ZM3443.24,1007.27L3443.24,1002.83L3447.9,1002.83L3447.9,1007.27L3443.24,1007.27ZM3452.56,1007.27L3452.56,1002.83L3457.21,1002.83L3457.21,1007.27L3452.56,1007.27ZM3461.87,1007.27L3461.87,1002.83L3466.52,1002.83L3466.52,1007.27L3461.87,1007.27ZM3471.18,1007.27L3471.18,1002.83L3475.83,1002.83L3475.83,1007.27L3471.18,1007.27ZM3480.49,1007.27L3480.49,1002.83L3485.14,1002.83L3485.14,1007.27L3480.49,1007.27ZM3489.8,1007.27L3489.8,1002.83L3494.45,1002.83L3494.45,1007.27L3489.8,1007.27ZM3499.11,1007.27L3499.11,1002.83L3503.76,1002.83L3503.76,1007.27L3499.11,1007.27ZM3508.42,1007.27L3508.42,1002.83L3513.07,1002.83L3513.07,1007.27L3508.42,1007.27ZM3517.73,1007.27L3517.73,1002.83L3522.39,1002.83L3522.39,1007.27L3517.73,1007.27ZM3527.04,1007.27L3527.04,1002.83L3531.7,1002.83L3531.7,1007.27L3527.04,1007.27ZM3536.35,1007.27L3536.35,1002.83L3541.01,1002.83L3541.01,1007.27L3536.35,1007.27ZM3545.66,1007.27L3545.66,1002.83L3550.32,1002.83L3550.32,1007.27L3545.66,1007.27ZM3554.97,1007.27L3554.97,1002.83L3559.63,1002.83L3559.63,1007.27L3554.97,1007.27ZM3564.28,1007.27L3564.28,1002.83L3568.94,1002.83L3568.94,1007.27L3564.28,1007.27ZM3573.59,1007.27L3573.59,1002.83L3578.25,1002.83L3578.25,1007.27L3573.59,1007.27ZM3582.9,1007.27L3582.9,1002.83L3587.55,1002.83L3587.55,1007.27L3582.9,1007.27ZM3592.21,1007.27L3592.21,1002.83L3596.87,1002.83L3596.87,1007.27L3592.21,1007.27ZM3601.52,1007.27L3601.52,1002.83L3606.18,1002.83L3606.18,1007.27L3601.52,1007.27ZM3610.83,1007.27L3610.83,1002.83L3615.49,1002.83L3615.49,1007.27L3610.83,1007.27ZM3620.14,1007.27L3620.14,1002.83L3624.8,1002.83L3624.8,1007.27L3620.14,1007.27ZM3629.45,1007.27L3629.45,1002.83L3634.11,1002.83L3634.11,1007.27L3629.45,1007.27ZM3638.76,1007.27L3638.76,1002.83L3643.42,1002.83L3643.42,1007.27L3638.76,1007.27ZM3648.07,1007.27L3648.07,1002.83L3652.73,1002.83L3652.73,1007.27L3648.07,1007.27ZM3657.38,1007.27L3657.38,1002.83L3662.04,1002.83L3662.04,1007.27L3657.38,1007.27ZM3666.7,1007.27L3666.7,1002.83L3671.35,1002.83L3671.35,1007.27L3666.7,1007.27ZM3676.01,1007.27L3676.01,1002.83L3680.66,1002.83L3680.66,1007.27L3676.01,1007.27ZM3685.32,1007.27L3685.32,1002.83L3689.97,1002.83L3689.97,1007.27L3685.32,1007.27ZM3694.62,1007.27L3694.62,1002.83L3699.28,1002.83L3699.28,1007.27L3694.62,1007.27ZM3703.93,1007.27L3703.93,1002.83L3708.59,1002.83L3708.59,1007.27L3703.93,1007.27ZM3713.24,1007.27L3713.24,1002.83L3717.9,1002.83L3717.9,1007.27L3713.24,1007.27ZM3722.56,1007.27L3722.56,1002.83L3727.21,1002.83L3727.21,1007.27L3722.56,1007.27ZM3731.87,1007.27L3731.87,1002.83L3736.52,1002.83L3736.52,1007.27L3731.87,1007.27ZM3741.18,1007.27L3741.18,1002.83L3745.83,1002.83L3745.83,1007.27L3741.18,1007.27ZM3750.49,1007.27L3750.49,1002.83L3755.14,1002.83L3755.14,1007.27L3750.49,1007.27ZM3759.8,1007.27L3759.8,1002.83L3764.45,1002.83L3764.45,1007.27L3759.8,1007.27ZM3769.11,1007.27L3769.11,1002.83L3773.76,1002.83L3773.76,1007.27L3769.11,1007.27ZM3778.42,1007.27L3778.42,1002.83L3783.07,1002.83L3783.07,1007.27L3778.42,1007.27ZM3787.73,1007.27L3787.73,1002.83L3792.38,1002.83L3792.38,1007.27L3787.73,1007.27ZM3797.04,1007.27L3797.04,1002.83L3801.7,1002.83L3801.7,1007.27L3797.04,1007.27ZM3806.35,1007.27L3806.35,1002.83L3811,1002.83L3811,1007.27L3806.35,1007.27ZM3815.66,1007.27L3815.66,1002.83L3820.32,1002.83L3820.32,1007.27L3815.66,1007.27ZM3824.97,1007.27L3824.97,1002.83L3829.63,1002.83L3829.63,1007.27L3824.97,1007.27ZM3834.28,1007.27L3834.28,1002.83L3838.93,1002.83L3838.93,1007.27L3834.28,1007.27ZM3843.59,1007.27L3843.59,1002.83L3848.25,1002.83L3848.25,1007.27L3843.59,1007.27ZM3852.9,1007.27L3852.9,1002.83L3857.56,1002.83L3857.56,1007.27L3852.9,1007.27ZM3862.21,1007.27L3862.21,1002.83L3866.87,1002.83L3866.87,1007.27L3862.21,1007.27ZM3871.52,1007.27L3871.52,1002.83L3876.18,1002.83L3876.18,1007.27L3871.52,1007.27ZM3880.83,1007.27L3880.83,1002.83L3885.49,1002.83L3885.49,1007.27L3880.83,1007.27ZM3890.14,1007.27L3890.14,1002.83L3894.8,1002.83L3894.8,1007.27L3890.14,1007.27ZM3899.45,1007.27L3899.45,1002.83L3904.11,1002.83L3904.11,1007.27L3899.45,1007.27ZM3908.76,1007.27L3908.76,1002.83L3913.42,1002.83L3913.42,1007.27L3908.76,1007.27ZM3918.07,1007.27L3918.07,1002.83L3922.73,1002.83L3922.73,1007.27L3918.07,1007.27ZM3927.38,1007.27L3927.38,1002.83L3932.04,1002.83L3932.04,1007.27L3927.38,1007.27ZM3936.69,1007.27L3936.69,1002.83L3941.35,1002.83L3941.35,1007.27L3936.69,1007.27ZM3946.01,1007.27L3946.01,1002.83L3950.66,1002.83L3950.66,1007.27L3946.01,1007.27ZM3955.31,1007.27L3955.31,1002.83L3959.97,1002.83L3959.97,1007.27L3955.31,1007.27ZM3964.62,1007.27L3964.62,1002.83L3969.28,1002.83L3969.28,1007.27L3964.62,1007.27ZM3973.94,1007.27L3973.94,1002.83L3978.59,1002.83L3978.59,1007.27L3973.94,1007.27ZM3983.25,1007.27L3983.25,1002.83L3987.9,1002.83L3987.9,1007.27L3983.25,1007.27ZM3992.56,1007.27L3992.56,1002.83L3997.21,1002.83L3997.21,1007.27L3992.56,1007.27ZM4001.87,1007.27L4001.87,1002.83L4006.52,1002.83L4006.52,1007.27L4001.87,1007.27ZM4011.18,1007.27L4011.18,1002.83L4015.83,1002.83L4015.83,1007.27L4011.18,1007.27ZM4020.49,1007.27L4020.49,1002.83L4025.14,1002.83L4025.14,1007.27L4020.49,1007.27ZM4029.8,1007.27L4029.8,1002.83L4034.45,1002.83L4034.45,1007.27L4029.8,1007.27ZM4039.11,1007.27L4039.11,1002.83L4043.76,1002.83L4043.76,1007.27L4039.11,1007.27ZM4048.42,1007.27L4048.42,1002.83L4053.07,1002.83L4053.07,1007.27L4048.42,1007.27ZM4057.73,1007.27L4057.73,1002.83L4062.38,1002.83L4062.38,1007.27L4057.73,1007.27ZM4067.04,1007.27L4067.04,1002.83L4071.7,1002.83L4071.7,1007.27L4067.04,1007.27ZM4076.35,1007.27L4076.35,1002.83L4081.01,1002.83L4081.01,1007.27L4076.35,1007.27ZM4085.66,1007.27L4085.66,1002.83L4090.31,1002.83L4090.31,1007.27L4085.66,1007.27ZM4094.97,1007.27L4094.97,1002.83L4099.62,1002.83L4099.62,1007.27L4094.97,1007.27ZM4104.28,1007.27L4104.28,1002.83L4108.94,1002.83L4108.94,1007.27L4104.28,1007.27ZM4113.59,1007.27L4113.59,1002.83L4118.25,1002.83L4118.25,1007.27L4113.59,1007.27ZM4122.9,1007.27L4122.9,1002.83L4127.56,1002.83L4127.56,1007.27L4122.9,1007.27ZM4132.21,1007.27L4132.21,1002.83L4136.87,1002.83L4136.87,1007.27L4132.21,1007.27ZM4141.52,1007.27L4141.52,1002.83L4146.18,1002.83L4146.18,1007.27L4141.52,1007.27ZM4150.83,1007.27L4150.83,1002.83L4155.49,1002.83L4155.49,1007.27L4150.83,1007.27ZM4160.14,1007.27L4160.14,1002.83L4164.8,1002.83L4164.8,1007.27L4160.14,1007.27ZM4169.45,1007.27L4169.45,1002.83L4174.11,1002.83L4174.11,1007.27L4169.45,1007.27ZM4178.76,1007.27L4178.76,1002.83L4183.42,1002.83L4183.42,1007.27L4178.76,1007.27ZM4188.07,1007.27L4188.07,1002.83L4192.73,1002.83L4192.73,1007.27L4188.07,1007.27ZM4197.38,1007.27L4197.38,1002.83L4202.04,1002.83L4202.04,1007.27L4197.38,1007.27ZM4206.69,1007.27L4206.69,1002.83L4211.35,1002.83L4211.35,1007.27L4206.69,1007.27ZM4216.01,1007.27L4216.01,1002.83L4220.66,1002.83L4220.66,1007.27L4216.01,1007.27ZM4225.32,1007.27L4225.32,1002.83L4229.97,1002.83L4229.97,1007.27L4225.32,1007.27ZM4234.62,1007.27L4234.62,1002.83L4239.28,1002.83L4239.28,1007.27L4234.62,1007.27ZM4243.94,1007.27L4243.94,1002.83L4248.59,1002.83L4248.59,1007.27L4243.94,1007.27ZM4253.25,1007.27L4253.25,1002.83L4257.9,1002.83L4257.9,1007.27L4253.25,1007.27ZM4262.56,1007.27L4262.56,1002.83L4264.88,1002.83L4264.88,1007.27L4262.56,1007.27Z" style="fill:rgb(179,179,179);"/>
            </g>
            <g id="tables">
                <g id="upper-table" serif:id="upper table">
                    <g transform="matrix(0.501778,0,0,2.22222,-3140.63,66.6667)">
                        <path d="M8061.59,22.5L8061.59,67.5C8061.59,79.918 8052.55,90 8041.41,90L6628.94,90C6617.8,90 6608.76,79.918 6608.76,67.5L6608.76,22.5C6608.76,10.082 6617.8,-0 6628.94,-0L8041.41,-0C8052.55,-0 8061.59,10.082 8061.59,22.5Z" style="fill:white;stroke:rgb(179,179,179);stroke-width:5.67px;"/>
                    </g>
                    <g transform="matrix(0.195337,0,0,0.964625,-2949.87,-63946.4)">
                        <g transform="matrix(-11.0972,0,0,6.79102,101418,59876.3)">
                            <path d="M7414.11,965.044L7414.11,975.132C7414.11,977.916 7412.72,980.176 7411.02,980.176L7374.75,980.176C7373.05,980.176 7371.66,977.916 7371.66,975.132L7371.66,965.044C7371.66,962.26 7373.05,960 7374.75,960L7411.02,960C7412.72,960 7414.11,962.26 7414.11,965.044Z" style="fill:none;stroke:rgb(153,153,153);stroke-width:0.74px;"/>
                        </g>
                        <g transform="matrix(1.04326,0,0,1.04326,4669.24,-3013.9)">
                            <g transform="matrix(71.7787,0,0,71.7787,14276.1,66622.5)">
                            </g>
                            <text x="13915.8px" y="66622.5px" style="font-family:'HelveticaNeueLTStd-Bd', 'Helvetica Neue LT Std', sans-serif;font-weight:700;font-size:71.779px;fill:rgb(179,179,179);">1 Sol. Y<tspan x="14165.8px " y="66622.5px ">e</tspan>ar</text>
                        </g>
                        <g transform="matrix(1.04326,0,0,1.04326,4374.37,-3013.9)">
                            <g transform="matrix(71.7787,0,0,71.7787,14022.2,66622.5)">
                            </g>
                            <text x="13915.8px" y="66622.5px" style="font-family:'HelveticaNeueLTStd-Bd', 'Helvetica Neue LT Std', sans-serif;font-weight:700;font-size:71.779px;fill:rgb(179,179,179);">1/4</text>
                        </g>
                    </g>
                    <g transform="matrix(0.195337,0,0,0.964625,-3540.27,-63946.4)">
                        <g transform="matrix(11.0972,0,0,6.79102,-62662.8,59876.3)">
                            <path d="M7414.11,965.044L7414.11,975.132C7414.11,977.916 7412.72,980.176 7411.02,980.176L7374.75,980.176C7373.05,980.176 7371.66,977.916 7371.66,975.132L7371.66,965.044C7371.66,962.26 7373.05,960 7374.75,960L7411.02,960C7412.72,960 7414.11,962.26 7414.11,965.044Z" style="fill:none;stroke:rgb(152,152,152);stroke-width:0.74px;"/>
                        </g>
                        <g transform="matrix(1.04326,0,0,1.04326,4714.25,-3013.9)">
                            <g transform="matrix(71.7787,0,0,71.7787,14195.1,66622.5)">
                            </g>
                            <text x="13915.8px" y="66622.5px" style="font-family:'HelveticaNeueLTStd-Bd', 'Helvetica Neue LT Std', sans-serif;font-weight:700;font-size:71.779px;fill:rgb(178,178,178);">4.6.2025</text>
                        </g>
                    </g>
                    <g transform="matrix(0.195337,0,0,0.964625,-3435.8,-63946.4)">
                        <g transform="matrix(-9.35954,0,0,6.79102,88543,59876.3)">
                            <path d="M7414.11,965.044L7414.11,975.132C7414.11,977.916 7412.47,980.176 7410.44,980.176L7375.32,980.176C7373.3,980.176 7371.66,977.916 7371.66,975.132L7371.66,965.044C7371.66,962.26 7373.3,960 7375.32,960L7410.44,960C7412.47,960 7414.11,962.26 7414.11,965.044Z" style="fill:none;stroke:rgb(153,153,153);stroke-width:0.84px;"/>
                        </g>
                        <g transform="matrix(1.04326,0,0,1.04326,4715.89,-3013.9)">
                            <g transform="matrix(71.7787,0,0,71.7787,14095.4,66622.5)">
                            </g>
                            <text x="13915.8px" y="66622.5px" style="font-family:'HelveticaNeueLTStd-Bd', 'Helvetica Neue LT Std', sans-serif;font-weight:700;font-size:71.779px;fill:rgb(178,178,178);">12:32</text>
                        </g>
                        <g transform="matrix(0.532606,0,0,0.532606,12018.8,30974.2)">
                            <g transform="matrix(71.7787,0,0,71.7787,14024.7,66622.5)">
                            </g>
                            <text x="13915.8px" y="66622.5px" style="font-family:'HelveticaNeueLTStd-Bd', 'Helvetica Neue LT Std', sans-serif;font-weight:700;font-size:71.779px;fill:rgb(178,178,178);">pm</text>
                        </g>
                    </g>
                    <g transform="matrix(0.195337,0,0,0.964625,-3042.57,-63946.4)">
                        <g transform="matrix(9.35954,0,0,6.79102,-49845,59876.3)">
                            <path d="M7414.11,965.044L7414.11,975.132C7414.11,977.916 7412.47,980.176 7410.44,980.176L7375.32,980.176C7373.3,980.176 7371.66,977.916 7371.66,975.132L7371.66,965.044C7371.66,962.26 7373.3,960 7375.32,960L7410.44,960C7412.47,960 7414.11,962.26 7414.11,965.044Z" style="fill:none;stroke:rgb(153,153,153);stroke-width:0.84px;"/>
                        </g>
                        <g transform="matrix(3.20996,0,0,3.20996,-4499.42,66232.4)">
                            <circle cx="7408.82" cy="72.224" r="14.887" style="fill:rgb(179,179,179);"/>
                        </g>
                        <g transform="matrix(3.20996,0,0,3.20996,-4499.42,66232.4)">
                            <clipPath id="_clip3">
                                <rect x="7408.82" y="57.337" width="14.887" height="29.774"/>
                            </clipPath>
                            <g clip-path="url(#_clip3)">
                                <circle cx="7408.82" cy="72.224" r="14.887" style="fill:rgb(77,77,77);"/>
                            </g>
                        </g>
                    </g>
                    <g transform="matrix(1.31463,-6.85787e-32,4.28617e-33,1.31463,460.635,-835.272)">
                        <g>
                            <g transform="matrix(-0.00384259,4.21347e-18,8.53227e-19,0.0189758,89.5873,-424.578)">
                                <path d="M17220.1,63862.1C16838.5,64371.1 16230.4,64700.6 15546,64700.6C14391.8,64700.6 13454.8,63763.5 13454.8,62609.4" style="fill:none;stroke:rgb(103,103,103);stroke-width:801.73px;"/>
                            </g>
                            <g transform="matrix(-0.00384259,4.21347e-18,8.53227e-19,0.0189758,105.659,-424.578)">
                                <path d="M13454.8,62609.4C13454.8,61455.2 14391.8,60518.1 15546,60518.1C16700.2,60518.1 17637.2,61455.2 17637.2,62609.4" style="fill:none;stroke:rgb(103,103,103);stroke-width:801.73px;"/>
                            </g>
                            <g transform="matrix(0.221817,0,0,1.09539,-1230.62,136.282)">
                                <path d="M5849.98,609.864L5849.98,536.355L5901.6,609.864L5901.6,536.355" style="fill:none;stroke:rgb(103,103,103);stroke-width:13.89px;"/>
                            </g>
                            <g transform="matrix(0.45,0,0,0.72005,-2583.91,452.991)">
                                <path d="M5875.79,486.319L5875.79,412.81" style="fill:none;stroke:rgb(103,103,103);stroke-width:9.21px;"/>
                            </g>
                            <g transform="matrix(0.211228,0,0,1.0431,-1153.83,44.2276)">
                                <path d="M5915.86,701.251C5915.86,716.392 5903.57,728.685 5888.43,728.685C5873.29,728.685 5861,716.392 5861,701.251C5861,686.111 5873.29,673.818 5888.43,673.818C5893.8,673.818 5898.81,675.363 5903.04,678.031" style="fill:none;stroke:rgb(103,103,103);stroke-width:14.58px;"/>
                            </g>
                        </g>
                        <g transform="matrix(0.0331143,1.72743e-33,-5.33157e-34,0.163527,-494.769,-9330.24)">
                            <circle cx="15579.1" cy="61716.9" r="78.443" style="fill:rgb(214,91,91);"/>
                        </g>
                        <g transform="matrix(0.0331143,1.72743e-33,-5.33157e-34,0.163527,-455.695,-9372.42)">
                            <circle cx="15579.1" cy="61716.9" r="78.443" style="fill:rgb(93,214,92);"/>
                        </g>
                        <g transform="matrix(0.0331143,1.72743e-33,-5.33157e-34,0.163527,-416.707,-9341.15)">
                            <circle cx="15579.1" cy="61716.9" r="78.443" style="fill:rgb(93,93,214);"/>
                        </g>
                    </g>
                </g>
            </g>
            <g id="lights" transform="matrix(0.0786059,0,0,0.388177,-846.437,-23562.2)">
                <g transform="matrix(1.32705,0,0,1.32705,-5127.68,-20201.9)">
                    <circle cx="15579.1" cy="61716.9" r="78.443" style="fill:rgb(214,91,91);stroke:white;stroke-width:38.83px;"/>
                </g>
                <g transform="matrix(0.75319,0,0,0.75319,1721.33,17306.3)">
                    <circle cx="15579.1" cy="61716.9" r="78.443" style="fill:rgb(214,92,214);stroke:white;stroke-width:45.6px;"/>
                </g>
                <g transform="matrix(0.75319,0,0,0.75319,10086.3,17306.3)">
                    <circle cx="15579.1" cy="61716.9" r="78.443" style="fill:rgb(214,93,214);stroke:white;stroke-width:45.6px;"/>
                </g>
                <g transform="matrix(0.75319,0,0,0.75319,6508.37,18796.4)">
                    <circle cx="15579.1" cy="61716.9" r="78.443" style="fill:rgb(92,214,214);stroke:white;stroke-width:45.6px;"/>
                </g>
                <g transform="matrix(0.75319,0,0,0.75319,9454.39,18796.4)">
                    <circle cx="15579.1" cy="61716.9" r="78.443" style="fill:rgb(92,214,214);stroke:white;stroke-width:45.6px;"/>
                </g>
                <g transform="matrix(0.75319,0,0,0.75319,2345.04,15816.2)">
                    <circle cx="15579.1" cy="61716.9" r="78.443" style="fill:rgb(214,214,93);stroke:white;stroke-width:45.6px;"/>
                </g>
                <g transform="matrix(0.75319,0,0,0.75319,5283.04,15816.2)">
                    <circle cx="15579.1" cy="61716.9" r="78.443" style="fill:rgb(214,214,91);stroke:white;stroke-width:45.6px;"/>
                </g>
                <g transform="matrix(1.32705,0,0,1.32705,-3036.44,-18110.7)">
                    <circle cx="15579.1" cy="61716.9" r="78.443" style="fill:rgb(93,214,93);stroke:white;stroke-width:38.83px;"/>
                </g>
                <g transform="matrix(1.32705,0,0,1.32705,-945.204,-16019.4)">
                    <circle cx="15579.1" cy="61716.9" r="78.443" style="fill:rgb(91,91,214);stroke:white;stroke-width:38.83px;"/>
                </g>
            </g>
        </g>
    </g>
</svg>
